<mxfile host="app.diagrams.net" agent="Mozilla/5.0 (Windows NT 10.0; Win64; x64) AppleWebKit/537.36 (KHTML, like Gecko) Chrome/126.0.0.0 Safari/537.36" version="24.7.4">
  <diagram id="C5RBs43oDa-KdzZeNtuy" name="Page-1">
    <mxGraphModel dx="1793" dy="923" grid="1" gridSize="10" guides="1" tooltips="1" connect="1" arrows="1" fold="1" page="1" pageScale="1" pageWidth="827" pageHeight="1169" math="0" shadow="0">
      <root>
        <mxCell id="WIyWlLk6GJQsqaUBKTNV-0" />
        <mxCell id="WIyWlLk6GJQsqaUBKTNV-1" parent="WIyWlLk6GJQsqaUBKTNV-0" />
        <mxCell id="MRkSjatOzodUhuUpxFkv-0" value="Prepare necessary tools: Scalpel, pins, needle, probes. Wear saftey gears: coat, gloves, etc." style="rounded=1;whiteSpace=wrap;html=1;" vertex="1" parent="WIyWlLk6GJQsqaUBKTNV-1">
          <mxGeometry x="270" y="100" width="200" height="70" as="geometry" />
        </mxCell>
        <mxCell id="MRkSjatOzodUhuUpxFkv-1" value="" style="endArrow=classic;html=1;rounded=0;" edge="1" parent="WIyWlLk6GJQsqaUBKTNV-1">
          <mxGeometry width="50" height="50" relative="1" as="geometry">
            <mxPoint x="329.5" y="170" as="sourcePoint" />
            <mxPoint x="329.5" y="230" as="targetPoint" />
          </mxGeometry>
        </mxCell>
        <mxCell id="MRkSjatOzodUhuUpxFkv-2" value="Observe the brain intact." style="rounded=1;whiteSpace=wrap;html=1;" vertex="1" parent="WIyWlLk6GJQsqaUBKTNV-1">
          <mxGeometry x="270" y="230" width="110" height="60" as="geometry" />
        </mxCell>
        <mxCell id="MRkSjatOzodUhuUpxFkv-3" value="" style="endArrow=classic;html=1;rounded=0;" edge="1" parent="WIyWlLk6GJQsqaUBKTNV-1">
          <mxGeometry width="50" height="50" relative="1" as="geometry">
            <mxPoint x="380" y="259.5" as="sourcePoint" />
            <mxPoint x="440" y="259.5" as="targetPoint" />
          </mxGeometry>
        </mxCell>
        <mxCell id="MRkSjatOzodUhuUpxFkv-4" value="Identify cerebrum, cerebellum, and spinal cord" style="rounded=1;whiteSpace=wrap;html=1;" vertex="1" parent="WIyWlLk6GJQsqaUBKTNV-1">
          <mxGeometry x="440" y="230" width="110" height="60" as="geometry" />
        </mxCell>
        <mxCell id="MRkSjatOzodUhuUpxFkv-5" value="" style="endArrow=classic;html=1;rounded=0;" edge="1" parent="WIyWlLk6GJQsqaUBKTNV-1">
          <mxGeometry width="50" height="50" relative="1" as="geometry">
            <mxPoint x="330" y="290" as="sourcePoint" />
            <mxPoint x="330" y="350" as="targetPoint" />
          </mxGeometry>
        </mxCell>
        <mxCell id="MRkSjatOzodUhuUpxFkv-6" value="Make an incision using scalpel along the medial longitudinal fissure. Separates left and right hemisphere." style="rounded=1;whiteSpace=wrap;html=1;" vertex="1" parent="WIyWlLk6GJQsqaUBKTNV-1">
          <mxGeometry x="220" y="350" width="190" height="60" as="geometry" />
        </mxCell>
        <mxCell id="MRkSjatOzodUhuUpxFkv-7" value="" style="endArrow=classic;html=1;rounded=0;" edge="1" parent="WIyWlLk6GJQsqaUBKTNV-1">
          <mxGeometry width="50" height="50" relative="1" as="geometry">
            <mxPoint x="410" y="379.5" as="sourcePoint" />
            <mxPoint x="470" y="379.5" as="targetPoint" />
          </mxGeometry>
        </mxCell>
        <mxCell id="MRkSjatOzodUhuUpxFkv-8" value="Observe parietal, temporal, occipital and frontal lobes. Examine both hemisphere after dissection" style="rounded=1;whiteSpace=wrap;html=1;" vertex="1" parent="WIyWlLk6GJQsqaUBKTNV-1">
          <mxGeometry x="470" y="350" width="170" height="60" as="geometry" />
        </mxCell>
        <mxCell id="MRkSjatOzodUhuUpxFkv-9" value="" style="endArrow=classic;html=1;rounded=0;" edge="1" parent="WIyWlLk6GJQsqaUBKTNV-1">
          <mxGeometry width="50" height="50" relative="1" as="geometry">
            <mxPoint x="330" y="410" as="sourcePoint" />
            <mxPoint x="330" y="470" as="targetPoint" />
          </mxGeometry>
        </mxCell>
        <mxCell id="MRkSjatOzodUhuUpxFkv-10" value="Identify brainstem consisting medulla, pons and midbrain." style="rounded=1;whiteSpace=wrap;html=1;" vertex="1" parent="WIyWlLk6GJQsqaUBKTNV-1">
          <mxGeometry x="280" y="470" width="110" height="60" as="geometry" />
        </mxCell>
        <mxCell id="MRkSjatOzodUhuUpxFkv-11" value="" style="endArrow=classic;html=1;rounded=0;" edge="1" parent="WIyWlLk6GJQsqaUBKTNV-1">
          <mxGeometry width="50" height="50" relative="1" as="geometry">
            <mxPoint x="390" y="499.5" as="sourcePoint" />
            <mxPoint x="450" y="499.5" as="targetPoint" />
          </mxGeometry>
        </mxCell>
        <mxCell id="MRkSjatOzodUhuUpxFkv-12" value="Identify and observe the optic tract, optic nerve, optic bulb, oflactory balls, optic chiasm." style="rounded=1;whiteSpace=wrap;html=1;" vertex="1" parent="WIyWlLk6GJQsqaUBKTNV-1">
          <mxGeometry x="450" y="470" width="180" height="60" as="geometry" />
        </mxCell>
        <mxCell id="MRkSjatOzodUhuUpxFkv-13" value="" style="endArrow=classic;html=1;rounded=0;" edge="1" parent="WIyWlLk6GJQsqaUBKTNV-1">
          <mxGeometry width="50" height="50" relative="1" as="geometry">
            <mxPoint x="530" y="530" as="sourcePoint" />
            <mxPoint x="530" y="590" as="targetPoint" />
          </mxGeometry>
        </mxCell>
        <mxCell id="MRkSjatOzodUhuUpxFkv-14" value="Observe the arbor vita of cerebelleum." style="rounded=1;whiteSpace=wrap;html=1;" vertex="1" parent="WIyWlLk6GJQsqaUBKTNV-1">
          <mxGeometry x="470" y="590" width="130" height="60" as="geometry" />
        </mxCell>
        <mxCell id="MRkSjatOzodUhuUpxFkv-15" value="" style="endArrow=classic;html=1;rounded=0;" edge="1" parent="WIyWlLk6GJQsqaUBKTNV-1">
          <mxGeometry width="50" height="50" relative="1" as="geometry">
            <mxPoint x="470" y="619.5" as="sourcePoint" />
            <mxPoint x="406" y="620" as="targetPoint" />
          </mxGeometry>
        </mxCell>
        <mxCell id="MRkSjatOzodUhuUpxFkv-16" value="Identify hypothalamus, thalamus and pineal gland in thr forebrain region. Idenitfy the corpus calosum connecting the two hemispheres." style="rounded=1;whiteSpace=wrap;html=1;" vertex="1" parent="WIyWlLk6GJQsqaUBKTNV-1">
          <mxGeometry x="170" y="585" width="230" height="60" as="geometry" />
        </mxCell>
        <mxCell id="MRkSjatOzodUhuUpxFkv-17" value="" style="endArrow=classic;html=1;rounded=0;" edge="1" parent="WIyWlLk6GJQsqaUBKTNV-1">
          <mxGeometry width="50" height="50" relative="1" as="geometry">
            <mxPoint x="324.5" y="645" as="sourcePoint" />
            <mxPoint x="324.5" y="705" as="targetPoint" />
          </mxGeometry>
        </mxCell>
        <mxCell id="MRkSjatOzodUhuUpxFkv-18" value="Inspect the white matter and gray matter in the brain and its location and distribution.&amp;nbsp;" style="rounded=1;whiteSpace=wrap;html=1;" vertex="1" parent="WIyWlLk6GJQsqaUBKTNV-1">
          <mxGeometry x="200" y="710" width="190" height="60" as="geometry" />
        </mxCell>
        <mxCell id="MRkSjatOzodUhuUpxFkv-19" value="Observe and locate the gyri and sulci distributed in the cererbral cortex area.&amp;nbsp;" style="rounded=1;whiteSpace=wrap;html=1;" vertex="1" parent="WIyWlLk6GJQsqaUBKTNV-1">
          <mxGeometry x="250" y="830" width="140" height="60" as="geometry" />
        </mxCell>
        <mxCell id="MRkSjatOzodUhuUpxFkv-20" value="" style="endArrow=classic;html=1;rounded=0;" edge="1" parent="WIyWlLk6GJQsqaUBKTNV-1">
          <mxGeometry width="50" height="50" relative="1" as="geometry">
            <mxPoint x="320" y="770" as="sourcePoint" />
            <mxPoint x="320" y="830" as="targetPoint" />
          </mxGeometry>
        </mxCell>
        <mxCell id="MRkSjatOzodUhuUpxFkv-21" value="" style="endArrow=classic;html=1;rounded=0;" edge="1" parent="WIyWlLk6GJQsqaUBKTNV-1">
          <mxGeometry width="50" height="50" relative="1" as="geometry">
            <mxPoint x="390" y="859.5" as="sourcePoint" />
            <mxPoint x="450" y="859.5" as="targetPoint" />
          </mxGeometry>
        </mxCell>
        <mxCell id="MRkSjatOzodUhuUpxFkv-22" value="Locate and check the ventricle of the brain which are cavities filled with fluid.&amp;nbsp;" style="rounded=1;whiteSpace=wrap;html=1;" vertex="1" parent="WIyWlLk6GJQsqaUBKTNV-1">
          <mxGeometry x="450" y="830" width="140" height="60" as="geometry" />
        </mxCell>
        <mxCell id="MRkSjatOzodUhuUpxFkv-23" value="" style="endArrow=classic;html=1;rounded=0;entryX=1;entryY=0;entryDx=0;entryDy=0;" edge="1" parent="WIyWlLk6GJQsqaUBKTNV-1">
          <mxGeometry width="50" height="50" relative="1" as="geometry">
            <mxPoint x="519.5" y="820" as="sourcePoint" />
            <mxPoint x="519.5" y="750" as="targetPoint" />
          </mxGeometry>
        </mxCell>
        <mxCell id="MRkSjatOzodUhuUpxFkv-24" value="Examine the flow of the cerebrospinal fluid in the vetricles.&amp;nbsp;" style="rounded=1;whiteSpace=wrap;html=1;" vertex="1" parent="WIyWlLk6GJQsqaUBKTNV-1">
          <mxGeometry x="455" y="690" width="130" height="60" as="geometry" />
        </mxCell>
        <mxCell id="MRkSjatOzodUhuUpxFkv-26" value="" style="endArrow=classic;html=1;rounded=0;" edge="1" parent="WIyWlLk6GJQsqaUBKTNV-1">
          <mxGeometry width="50" height="50" relative="1" as="geometry">
            <mxPoint x="585" y="720" as="sourcePoint" />
            <mxPoint x="630" y="750" as="targetPoint" />
            <Array as="points">
              <mxPoint x="630" y="720" />
            </Array>
          </mxGeometry>
        </mxCell>
        <mxCell id="MRkSjatOzodUhuUpxFkv-27" value="After locating and observing structures, use pins to label the parts." style="rounded=1;whiteSpace=wrap;html=1;" vertex="1" parent="WIyWlLk6GJQsqaUBKTNV-1">
          <mxGeometry x="610" y="750" width="130" height="60" as="geometry" />
        </mxCell>
      </root>
    </mxGraphModel>
  </diagram>
</mxfile>
